<svg width="95" height="94" viewBox="0 0 95 94" fill="none" xmlns="http://www.w3.org/2000/svg">
  <g clip-path="url(#clip0_138_654)">
    <path d="M8.85897 0.078412C15.2327 -0.148875 21.8183 0.204811 28.2187 0.0618753C30.4607 0.0118799 33.2793 -0.0601651 35.47 0.124818C36.4464 0.198016 37.4048 0.427739 38.3082 0.805524C40.5447 1.72518 42.3009 3.52963 43.1585 5.79019C43.4918 6.6546 43.6944 7.56311 43.761 8.48674C43.9238 10.64 43.7315 13.8315 43.7738 16.0831C43.7931 19.2863 43.7969 22.4964 43.7854 25.698C43.7764 28.5939 41.3407 27.921 39.1725 28.1417C38.3437 28.2257 37.523 28.3768 36.7187 28.5937C32.4275 29.7507 29.4679 32.3085 27.2997 36.1111C26.7212 37.2363 26.5626 37.7147 26.1292 38.9728C25.6496 40.365 25.6619 42.3703 24.9219 43.5304C24.7235 43.808 24.1645 43.9937 23.8389 43.9945C19.8718 44.0046 15.9038 43.9539 11.9357 43.9908C10.415 44.0049 8.74284 44.0617 7.2581 43.7598C5.81644 43.4807 4.46707 42.8467 3.33218 41.9147C1.55016 40.4485 0.431798 38.3279 0.228355 36.0292C0.0831122 34.3703 0.158493 31.7886 0.161442 30.0791L0.164008 20.1321L0.164392 12.2159C0.16734 8.87632 -0.0695599 5.91441 2.31291 3.18351C4.1189 1.11344 6.14781 0.275445 8.85897 0.078412Z" fill="#B7D075"/>
    <path d="M20.5096 49.3613C32.7609 48.4041 43.4662 57.5639 44.4161 69.8159C45.366 82.0674 36.1995 92.7677 23.9471 93.7099C11.7052 94.6508 1.01648 85.494 0.067595 73.2528C-0.881164 61.0121 8.26889 50.3176 20.5096 49.3613Z" fill="#B7D075"/>
    <path d="M69.8574 0.713776C73.4635 0.238051 77.8105 2.80076 79.5924 5.83446C80.4577 7.30843 81.2935 8.77086 82.1345 10.2578L86.6392 18.1713L90.6773 25.2035C92.2194 27.8933 93.668 29.9698 93.9487 33.1446C94.1833 36.0667 93.2552 38.9633 91.3644 41.2034C87.9544 45.2511 83.0177 45.5285 78.09 44.7664C75.1389 44.31 73.8096 43.3927 70.5817 43.6488C67.6755 44.0972 65.1283 45.1405 62.0504 45.6C54.9293 46.6629 47.5338 43.7042 46.748 35.5637C46.5685 33.7718 46.8069 31.9627 47.4453 30.2789C48.2978 28.0652 51.3001 23.2029 52.609 20.8826L58.2251 11.0066C61.3056 5.58179 62.9516 1.39179 69.8574 0.713776Z" fill="#B7D075"/>
    <path d="M71.4546 48.64C73.9236 48.7758 74.4492 49.8953 75.3043 51.9082C78.0143 58.2858 82.3229 63.694 88.6954 66.7048C90.4157 67.6072 93.4244 68.1995 93.9167 70.3762C94.5179 73.3413 92.5476 74.331 90.2529 75.2617C83.7138 77.9127 78.7604 82.9879 75.8824 89.386C74.853 91.6743 74.712 93.4113 71.879 93.9394C68.9254 93.8177 68.578 92.1896 67.5614 89.8257C67.0525 88.654 66.4705 87.5144 65.818 86.4145C63.0759 81.7803 59.6762 78.6011 54.9126 76.0975C52.8858 75.0335 49.9848 74.6515 49.3092 72.1953C48.8952 70.6929 49.7759 68.7264 51.2398 68.1687C55.7817 66.4356 60.0967 63.7568 63.1926 59.9579C65.7308 56.8834 67.1614 53.7654 68.7767 50.2183C69.201 49.2873 70.4727 48.8456 71.4546 48.64Z" fill="#B7D075"/>
  </g>
  <defs>
    <clipPath id="clip0_138_654">
      <rect width="94.026" height="93.9394" fill="white"/>
    </clipPath>
  </defs>
</svg>
